<svg xmlns="http://www.w3.org/2000/svg" width="122" height="39" viewBox="0 0 122 39">
                    <g fill="none" fill-rule="evenodd">
                        <g fill="#FFF">
                            <g>
                                <g>
                                    <path d="M64.823 21.296l.01-4.87c3.03 0 4.143-.152 4.672 3.592h.321v-4.165l-8.26.002v.572h1.432v10.716H61.42v.564h8.511v-4.378h-.426c-.424 3.31-1.258 3.816-3.597 3.816h-1.085v-5.206h.628c1.049.027 1.648.64 1.862 2.459h.387l-.002-5.385c-.01.01-.381 0-.381 0 0 .03-.076 2.315-1.91 2.283h-.584zM61.449 21.51h-4.66v.533h1.596v3.854c-.269.977-1.7 1.386-2.127 1.386-2.978 0-2.766-4.38-2.766-5.557 0-1.071-.107-5.559 2.766-5.559 2.02 0 3.084 2.027 3.512 3.85h.325c0-.75.01-4.32.002-4.312.007-.027-1.386 1.009-1.391.993.029-.008-.637-.96-2.448-.96-3.513 0-4.801 3.529-4.79 5.988.016 2.254 1.05 6.09 4.79 6.09 1.177 0 2.004-.602 2.448-1.287.005-.014 1.482 1.175 1.486 1.179v-5.665h1.257v-.532zM102.156 23.432l1.7-5.124 1.812 5.124h-3.512zm-6.597-2.044h-1.912v-4.967h2.443c1.436.217 1.494 1.887 1.494 2.416 0 1.288-.533 2.551-2.025 2.551zm20.336 1.94c-.424 3.313-1.257 3.809-3.597 3.809h-.144V16.423h1.488v-.578h-4.893v.578h1.489v10.714h-1.181l-4.348-11.613h-.638c.013-.006-3.615 10.538-3.623 10.567.008-.03-.272.905-.87 1.022-.55.028-.507-.262-.507-.364v-2.032c0-.531-.043-1.741-.592-2.3-.618-.624-1.669-.669-1.645-.692 0 0 2.673-.556 2.673-3.115 0-1.792-1.24-2.685-3.31-2.761h-5.875v.577h1.502v10.715h-1.502v.567h4.821v-.567h-1.506v-5.154h2.006c3.476.288-.597 5.73 3.96 5.721h2.874v-.571c-.16 0-1.214.031-1.278-.71-.047-.53.693-2.449.693-2.449h3.91c-.002-.007 1.218 3.163 1.228 3.163h-1.362v.567h10.653v-4.38h-.426zM84.528 16.42c3.033 0 4.151-.146 4.679 3.597h.32v-4.164H77.486v.568h.316c.426 0 1.431.033 1.494.926h-.002v6.833l-5.636-8.327H70.59v.568h.51c.605 0 1.453.027 1.49.926v8.756c0 .854-1.273 1.18-1.802 1.18h-.008v.425h4.152v-.424c-.531 0-1.811-.327-1.811-1.181l.013-7.707c2.232 3.205 6.442 9.32 6.48 9.312h.21V17.347c.06-.893 1.067-.926 1.49-.926H82.7v10.724h-1.576v.563h8.512v-4.38h-.428c-.423 3.313-1.257 3.819-3.598 3.819h-1.081v-5.209h.626c1.05.028 1.646.642 1.86 2.46h.387l-.002-5.385c-.008.01-.381 0-.381 0 0 .03-.074 2.314-1.91 2.283h-.58v-4.875zM121.674 16.423L121.674 15.845 116.869 15.845 116.869 16.423 118.381 16.423 118.385 27.131 116.869 27.131 116.869 27.708 121.674 27.708 121.674 27.131 120.165 27.131 120.165 16.423zM51.468 12.62v-.576h1.591V1.32h-1.453V.83h8.23v4.098h-.314c-.138-.924-.311-1.639-.535-2.144-.21-.47-.486-.818-.852-1.028-.362-.227-.811-.352-1.333-.366-.26-.02-.552-.02-.88-.035-.332 0-.678-.02-1.042-.02v4.901c0-.017.053-.017.173-.017.069.017.139.017.191.017h.19c.33 0 .59-.05.779-.176.21-.086.381-.225.537-.397.052-.089.12-.177.173-.265.055-.084.103-.19.156-.295.035-.087.09-.175.105-.278.017-.087.035-.173.07-.263.015-.086.035-.158.035-.225.017-.07.017-.139.035-.192 0-.07.017-.106.017-.123v-.07h.382v5.372h-.417c-.037-.23-.052-.437-.105-.629-.033-.174-.087-.35-.122-.522-.12-.331-.242-.576-.382-.75-.155-.21-.344-.349-.537-.417-.188-.088-.412-.126-.69-.126h-.59v5.164h1.576v.575h-4.988zM80.23 5.19c-.016-.138-.016-.315-.051-.522-.018-.122-.018-.23-.035-.349-.018-.121-.018-.244-.035-.368-.035-.243-.088-.505-.158-.781-.068-.264-.155-.505-.294-.752-.105-.192-.243-.366-.416-.525-.087-.068-.138-.119-.208-.19-.066-.052-.154-.123-.206-.154-.07-.057-.156-.088-.243-.145-.086-.033-.226-.086-.31-.086h-1.11c.017 1.014.017 1.956.017 2.847v7.896h1.49v.558h-4.904v-.558h1.492V1.318s-1.162-.016-1.475.053c-.085.033-.153.068-.311.158-.068.034-.138.088-.226.14-.07.052-.155.105-.241.173-.156.14-.294.333-.418.54-.066.122-.119.246-.17.369-.052.12-.087.26-.124.384-.068.276-.12.54-.156.785-.015.12-.035.245-.035.364-.017.102-.033.35-.033.35l-.017.277v.211h-.364V.83h8.871l.016 4.36h-.347zM98.984 5.453c.085-.122.173-.263.225-.384.035-.141.086-.28.12-.435.069-.297.104-.63.104-.942 0-.07 0-.156-.016-.262 0-.088-.019-.21-.019-.33-.033-.28-.088-.526-.171-.768-.088-.263-.208-.455-.417-.68-.07-.088-.223-.192-.328-.227-.088-.055-.226-.106-.537-.106h-2.461v4.934h1.922c.399 0 .712-.068.953-.207.26-.123.465-.313.625-.593m2.988 7.027c-.125.05-.263.086-.399.104-.175.035-.348.07-.521.07-.47 0-.831-.088-1.057-.227-.243-.174-.434-.366-.537-.628-.105-.278-.173-.576-.19-.887 0-.161-.018-.335-.018-.508V9.9c.018-.368.018-.716 0-1.047 0-.331-.052-.644-.155-.922-.086-.263-.261-.488-.487-.701-.225-.173-.554-.277-.986-.331h-2.045v5.163h1.56l.016.558h-4.887v-.558h1.58V1.425h-1.58V.832h5.908c.279 0 .522 0 .745.017.226.034.454.07.662.14.399.103.743.262 1.021.489.278.19.487.47.64.818.156.368.226.784.226 1.273 0 .646-.138 1.169-.434 1.553-.276.4-.59.732-.918.957-.399.278-.83.472-1.298.593h.016c.035.018.068.018.122.036.068 0 .121.017.19.035.071 0 .157.018.227.053.173.033.344.102.537.21.188.068.379.19.535.348.12.139.243.313.33.519.07.196.138.401.174.63.019.122.033.23.033.333.019.104.019.208.035.313 0 .087.017.177.017.278v2.352c0 .037.018.072.035.123.035.038.086.07.156.108.035.016.14.033.311.033l.4-.14.365.367c-.07.087-.193.157-.33.21M111.227 12.62h-8.505v-.559h1.575V1.32h-1.437V.83h8.244v4.098h-.328c-.07-.472-.139-.889-.226-1.237-.105-.349-.189-.66-.296-.907-.204-.47-.502-.818-.865-1.045-.364-.227-.814-.335-1.35-.349-.26-.02-.555-.02-.866-.035-.33 0-.675-.02-1.057-.02V6.22h.589c.295 0 .536-.051.779-.159.226-.12.399-.26.52-.397.07-.106.122-.192.188-.28.055-.087.107-.175.14-.28.035-.106.07-.192.105-.278.035-.087.053-.19.07-.279.035-.09.053-.195.053-.28.015-.088.033-.209.033-.33h.381v5.388h-.414c-.018-.23-.053-.437-.088-.629-.035-.174-.087-.366-.14-.522-.103-.331-.241-.594-.364-.768-.155-.192-.326-.33-.517-.419-.226-.088-.451-.121-.693-.121h-.642v5.196h1.074c.605 0 1.11-.035 1.49-.123.415-.088.763-.26 1.02-.523.28-.28.504-.681.677-1.167.087-.262.173-.542.225-.873.07-.331.123-.715.174-1.118h.451v4.362zM67.634 1.426V.83h3.431v.595h-1.443v6.453c0 1.31-.07 2.168-.19 2.587-.417 1.486-1.528 2.22-3.32 2.22-.902 0-1.72-.174-2.414-.524-.817-.402-1.338-1.03-1.547-1.853-.12-.419-.155-1.225-.155-2.43V1.404h-1.457V.831h4.758v.573h-1.46V7.88c0 1.222.019 2.027.07 2.38.052.364.192.696.415 1.031.452.662 1.183.825 2.191.825 1.146 0 1.788-.439 2.171-1.246.156-.333.243-.681.294-1.032.035-.35.052-.998.052-1.958V1.426h-1.396zM88.272 1.426V.83h3.432v.595h-1.443v6.453c0 1.31-.069 2.168-.19 2.587-.417 1.486-1.53 2.22-3.32 2.22-.903 0-1.72-.174-2.412-.524-.817-.402-1.339-1.03-1.549-1.853-.12-.419-.155-1.225-.155-2.43V1.404h-1.462V.831h4.763v.573h-1.46V7.88c0 1.222.018 2.027.069 2.38.052.364.193.696.418 1.031.452.662 1.181.825 2.189.825 1.146 0 1.786-.439 2.17-1.246.158-.333.244-.681.295-1.032.035-.35.054-.998.054-1.958V1.426h-1.399zM2.833 38.716L1.899 38.716 1.899 31.923 0 31.923 0 31.089 4.741 31.089 4.741 31.923 2.833 31.923zM6.341 34.903c0 1.76.17 3.193 1.463 3.193 1.296 0 1.465-1.433 1.465-3.193S9.1 31.71 7.804 31.71c-1.293 0-1.463 1.432-1.463 3.192m3.905 0c0 1.92-.35 3.961-2.442 3.961-2.087 0-2.44-2.04-2.44-3.961 0-1.92.353-3.961 2.44-3.961 2.092 0 2.442 2.04 2.442 3.96M13.702 38.716L12.769 38.716 12.769 31.923 10.87 31.923 10.87 31.089 15.611 31.089 15.611 31.923 13.702 31.923zM16.79 35.853h2.036l-.965-3.683h-.02l-1.051 3.683zm.455-4.763h1.253l2.037 7.626h-.977l-.54-2.093h-2.42l-.561 2.093h-.977l2.185-7.626zM21.095 31.09L22.028 31.09 22.028 37.883 25.106 37.883 25.106 38.717 21.095 38.717zM28.413 38.717L29.347 38.717 29.347 31.091 28.413 31.091zM30.607 31.09L31.817 31.09 34.321 37.456 34.342 37.456 34.342 31.09 35.276 31.09 35.276 38.717 33.992 38.717 31.562 32.543 31.541 32.543 31.541 38.717 30.607 38.717zM39.75 33.066c0-.8-.286-1.353-1.177-1.353-.786 0-1.253.424-1.253 1.235 0 2.148 3.576.866 3.576 3.654 0 1.762-1.284 2.263-2.354 2.263-1.773 0-2.292-.918-2.292-2.541h.932c0 .855.054 1.772 1.422 1.772.743 0 1.317-.533 1.317-1.345 0-2.158-3.576-.907-3.576-3.705 0-.705.296-2.105 2.218-2.105 1.442 0 2.1.727 2.12 2.125h-.933zM41.786 31.09h.933v5.361c0 1.122.362 1.645 1.284 1.645.996 0 1.294-.578 1.294-1.645v-5.36h.934v5.36c0 1.463-.743 2.415-2.228 2.415-1.52 0-2.217-.844-2.217-2.415v-5.36zM48.34 34.551h.924c.55 0 1.558 0 1.558-1.474 0-.748-.498-1.218-1.367-1.218H48.34v2.692zm-.932-3.461h2.45c1.188 0 1.941.706 1.941 1.913 0 .834-.286 1.709-1.167 1.92v.024c.657.072 1.029.619 1.072 1.27l.064 1.303c.04.844.179 1.057.403 1.196h-1.125c-.16-.16-.233-.726-.255-1.102l-.062-1.183c-.076-1.048-.648-1.11-1.126-1.11H48.34v3.395h-.932V31.09zM53.971 35.853h2.037l-.965-3.683h-.02l-1.052 3.683zm.457-4.763h1.251l2.037 7.626h-.977l-.538-2.093h-2.42l-.563 2.093h-.974l2.184-7.626zM58.278 31.09L59.488 31.09 61.99 37.456 62.011 37.456 62.011 31.09 62.945 31.09 62.945 38.717 61.661 38.717 59.231 32.543 59.21 32.543 59.21 38.717 58.278 38.717zM68.84 36.1c-.083 1.44-.645 2.765-2.3 2.765-2.154 0-2.44-2.04-2.44-3.961 0-1.923.35-3.963 2.44-3.963 1.548 0 2.196.875 2.239 2.37h-.977c-.021-.863-.298-1.599-1.263-1.599-1.293 0-1.464 1.43-1.464 3.192 0 1.76.17 3.193 1.464 3.193 1.137 0 1.294-1.069 1.327-1.997h.975zM69.741 31.09L73.656 31.09 73.656 31.924 70.675 31.924 70.675 34.315 73.486 34.315 73.486 35.149 70.675 35.149 70.675 37.883 73.782 37.883 73.782 38.717 69.741 38.717zM80.475 33.066c0-.8-.285-1.353-1.177-1.353-.785 0-1.252.424-1.252 1.235 0 2.148 3.575.866 3.575 3.654 0 1.762-1.284 2.263-2.356 2.263-1.772 0-2.291-.918-2.291-2.541h.934c0 .855.054 1.772 1.422 1.772.74 0 1.315-.533 1.315-1.345 0-2.158-3.576-.907-3.576-3.705 0-.705.298-2.105 2.218-2.105 1.443 0 2.1.727 2.12 2.125h-.932zM83.466 34.903c0 1.76.169 3.193 1.463 3.193 1.293 0 1.465-1.433 1.465-3.193s-.172-3.192-1.465-3.192c-1.294 0-1.463 1.432-1.463 3.192m3.902 0c0 1.92-.348 3.961-2.44 3.961-2.089 0-2.439-2.04-2.439-3.961 0-1.92.35-3.961 2.44-3.961 2.091 0 2.44 2.04 2.44 3.96M88.523 31.09L89.457 31.09 89.457 37.883 92.535 37.883 92.535 38.717 88.523 38.717zM93.179 31.09h.933v5.361c0 1.122.362 1.645 1.286 1.645.995 0 1.292-.578 1.292-1.645v-5.36h.934v5.36c0 1.463-.743 2.415-2.226 2.415-1.519 0-2.22-.844-2.22-2.415v-5.36zM101.103 38.716L100.169 38.716 100.169 31.923 98.27 31.923 98.27 31.089 103.011 31.089 103.011 31.923 101.103 31.923zM103.744 38.717L104.677 38.717 104.677 31.091 103.744 31.091zM106.595 34.903c0 1.76.17 3.193 1.465 3.193 1.294 0 1.463-1.433 1.463-3.193s-.17-3.192-1.463-3.192c-1.295 0-1.465 1.432-1.465 3.192m3.905 0c0 1.92-.35 3.961-2.44 3.961s-2.44-2.04-2.44-3.961c0-1.92.35-3.961 2.44-3.961s2.44 2.04 2.44 3.96M111.443 31.09L112.653 31.09 115.155 37.456 115.176 37.456 115.176 31.09 116.11 31.09 116.11 38.717 114.826 38.717 112.396 32.543 112.375 32.543 112.375 38.717 111.443 38.717zM120.586 33.066c0-.8-.286-1.353-1.177-1.353-.786 0-1.253.424-1.253 1.235 0 2.148 3.575.866 3.575 3.654 0 1.762-1.284 2.263-2.355 2.263-1.773 0-2.292-.918-2.292-2.541h.934c0 .855.052 1.772 1.42 1.772.743 0 1.317-.533 1.317-1.345 0-2.158-3.576-.907-3.576-3.705 0-.705.298-2.105 2.218-2.105 1.443 0 2.101.727 2.12 2.125h-.931zM35.28 23.591c.094-.245.28-.4.534-.448l2.58-.58-.234-2.314-.008-.051c-.062-.304-.255-1.226-1.453-1.326-4.609-.376-5.677-1.061-6.797-1.79l-.006-.011-.006.004-.072-.05c-1.199-.777-2.385-.784-2.504-.78-1.305 0-2.955.52-3.091.563-.399.12-.772.237-1.132.355-1.442.468-2.689.871-4.784.809l-.383-.012-.098.372c-.076.288-.661 2.616-.095 4.114-.508.403-.508.865-.504.93.02.51-.101.638-.14.677-.241.253-1.045.288-1.72.288h-.255l-.144.2c-.418.575-1.319.712-1.896.564-.251-.776-.26-1.37-.014-1.722.288-.419.9-.466 1.15-.466h.144c.615 0 1.11-.503 1.11-1.122v-4.172c.19-.288.337-.623.468-1 1.011-.163 1.785-1.025 1.785-2.064 0-.398-.116-.785-.326-1.114.935-.45 1.733-1.377 1.733-2.59 0-1.213-.605-1.769-1.183-2.135.164-.464.432-1.284.613-2.109l.81-2.915c.361-1.144 1.308-1.884 2.41-1.884h14.254c-.603.854-1.461 1.261-2.648 1.261h-8.626l-.45.97h7.73c-.607.972-1.496 1.429-2.759 1.429h-5.605l-.45.97h5c-.604.939-1.486 1.38-2.725 1.38h-3.056l-.45.968h3.203c.03.044.11.188.11.582 0 .627-.52 1.132-1.163 1.132-.218 0-.406-.05-.735-.184-.142-.063-.284-.122-.424-.182l-.745.671c.138.06.278.12.418.178.642.282 1.002.427 1.486.427.592 0 1.123-.247 1.502-.638.547.039 1.434.111 2.288.18 1.027.086 1.994.164 2.494.192.25.014.484.025.708.035.426.022.815.041 1.204.069 1.946 3.18 2.942 3.598 6.712 4.053.268.49.514 1.006.749 1.527v6.228c.021.284.021.38-.018.431-.13.172-.712.417-.916.501l-3.175 1.205c-.42-.574-.57-1.173-.404-1.606zm-.686 1.68h-6.278l2.69-2.857c.543-.566.718-1.243.489-1.91-.13-.385-.485-1.125-.856-1.88 1.068.499 2.688.95 5.98 1.215.399.034.504.169.582.531l.144 1.433-1.722.386c-.576.116-1.03.497-1.243 1.05-.236.61-.156 1.329.214 2.032zm-11.322 0c-.176-.685-.106-1.234.206-1.592.297-.345.757-.45 1.08-.403l1.836.344.045.008h.255l1.297-1.408.012-.011c.222-.26.897-1.048.21-2.05l-1.735-2.877c.288-.039.575-.066.84-.066l.014-.002c.007.002.877-.012 1.807.534.126.27.303.63.498 1.03.364.742.817 1.666.942 2.038.04.12.163.474-.27.929l-3.324 3.526h-3.713zm-.522-2.232c-.35.403-.69 1.106-.469 2.232H16.37c.634-.063 1.097-.212 1.414-.544.39-.406.425-.96.411-1.355.012-.036.076-.169.366-.3l.51-.235-.306-.472c-.506-.781-.284-2.486-.09-3.416h.045c2.006 0 3.302-.42 4.67-.862.355-.115.723-.235 1.112-.347l.012-.005c.007-.002.408-.132.951-.257l1.926 3.196.02.025c.192.276.215.46-.135.87l-.965 1.049-1.583-.298-.016-.002c-.714-.11-1.484.173-1.96.72zm-10.488-.212c-.41.596-.46 1.416-.15 2.444h-1v-7.846c.359-.057.744-.158 1.102-.323-.02.343-.066.613-.13.975-.014.084-.03.17-.045.265l-.098.565h.572c.856 0 1.494-.133 1.983-.39v3.278c0 .085-.064.151-.144.151h-.144c-.85 0-1.558.321-1.946.881zm-2.116 1.596l-4.55-1.194-4.555 1.194v-8.196l4.554-1.187 4.55 1.187v8.196zm-8.52.848l3.97-1.038 3.966 1.038H1.627zm1.588-12.063c.189-.29.625-.545 1.167-.447l.415.07.128-.399c.035-.107.08-.186.146-.248.117-.11.288-.16.508-.155.584.018 1.311.427 1.903 1.065.215.233.404.503.575.774.033.056.07.119.107.174.047.074.086.137.094.153.023.037.315.48.294.507.202-.282.4-.564.6-.848.006-.008-.003-.033-.019-.07-.046-.099-.152-.265-.214-.363-.017-.025-.03-.05-.046-.072-.002-.002-.004-.004-.004-.006-.006-.012-.033-.055-.068-.11-.067-.106-.162-.258-.205-.34l1.26-2.027c.314.067.58.076.707.076h.033c1.776 0 3.613-1.03 3.613-2.757v-.043c-.022-.468-.11-.916-.18-1.276-.046-.237-.089-.46-.089-.574 0-.192.263-.4.642-.4h.574l-.259-1.497c.808-.6 1.306-1.573 1.279-2.505.87.672 1.484 1.837 1.597 3.076.033.36-.04.866-.154 1.395l-.062.22.012.003c-.207.865-.51 1.756-.672 2.177l-.147.39.361.205c.648.37 1.047.64 1.047 1.498 0 .985-.881 1.74-1.731 1.901l-1.166.22.985.662c.315.209.504.556.504.922 0 .618-.524 1.122-1.166 1.122h-.371l-.103.344c-.362 1.183-.755 1.762-2.016 1.888.058-.362.097-.707.097-1.199 0-.113-.01-.436-.013-.54l-.057-1.104-.772.789c-.26.266-.726.48-1.235.581v-.965l-5.518-1.441-1.964.515c-.438-.443-.526-1.17-.417-1.341zm5.96-3.566c.013-.066.067-.121.124-.12l.832.028c1.014-.035 2.045-.454 2.16-1.517 0-.719-.506-1.42-1.222-1.42-.383 0-.813.266-1.298.59-.313.209-.562.375-.753.375-.126 0-.23-.084-.23-.154 0-.012.003-.028.007-.035l.53-.717-.458-.311c-.098-.063-.251-.186-.267-.275-.01-.045.053-.119.072-.144.189-.222.409-.496.63-.83.135-.19.213-.296.44-.296.224 0 .409.182.409.403 0 .147.16.264.36.264.198 0 .287-.14.412-.264 0 0 .473-.435.222-.644-.288-.235-1.434.247-1.115-.813l.08-.15c.124-.165.671-.572 1.803-.572.216 0 .442.015.671.043l.174.021 2.402-1.492c.022.051.03.087.03.087l.001.015c.125.733-.334 1.604-1.066 2.029l-.294.168.19 1.093c-.618.19-1.048.687-1.048 1.288 0 .206.047.45.107.76.069.344.142.732.162 1.128 0 1.135-1.556 1.887-2.875 1.842h-.033c-.055-.002-.893-.068-1.1-.231-.039-.03-.07-.098-.06-.149zm1.991-7.58c.152-.195.4-.412.693-.608.233-.155.533-.29.827-.376.466-.133 1.001-.143 1.556-.037L12.535 2.1c-.212-.022-.42-.031-.623-.031-.29 0-.554.023-.8.062l.053-.068zm25.99-.25h6.429c-.601.856-1.461 1.261-2.648 1.261h-4.747c.378-.335.7-.756.965-1.26zm-.324 3.66h-4.749c.422-.37.77-.848 1.05-1.43h6.458c-.607.973-1.496 1.43-2.759 1.43zm-3.778 2.35h-4.747c.407-.36.747-.823 1.02-1.38h6.45c-.604.939-1.482 1.38-2.723 1.38zm1.091 3.647c1.504.249 2.736.928 3.66 2.023.198.237.389.483.578.753-2.531-.334-3.413-.706-4.827-2.866.189.023.385.053.59.09zM44.24 21.946c.094.15.171.294.25.43.093.167.186.33.293.5-.733-.047-1.286-.456-1.8-1.225.473-.167 1.047-.05 1.257.295zm-6.015 3.325l.986-.374.014-.004c1.4-.585 1.601-.948 1.535-1.887v-3.79c1.066 2.724 2.072 4.64 4.14 4.64.28 0 .58-.036.902-.108l.806-.184-.555-.617c-.354-.392-.525-.7-.723-1.05-.082-.143-.164-.295-.267-.462-.484-.789-1.634-1.055-2.564-.636-.422-.844-.848-1.944-1.36-3.303l-.113-.259-.266-.613v-.033h-.016c-.317-.716-.655-1.439-1.06-2.11-.368-.615-.741-1.142-1.142-1.618-1.078-1.275-2.504-2.066-4.239-2.355-1.198-.198-2.048-.241-3.124-.294-.224-.01-.456-.022-.705-.037-.486-.024-1.494-.106-2.466-.188-.656-.055-1.327-.11-1.856-.15.035-.15.056-.304.056-.467 0-.215-.021-.407-.058-.582h6.904c1.778 0 3.068-.79 3.833-2.35 1.77-.015 3.05-.821 3.805-2.398h.245c1.842 0 3.16-.846 3.914-2.516l.313-.683H21.772c-1.535 0-2.845 1.006-3.337 2.567l-.013.055c-.397-1.116-1.127-2.062-2.06-2.62-1.296-.78-2.77-1.038-3.946-.7-.389.114-.776.29-1.09.498-.27.18-.647.47-.923.82-.298.386-.588.856-.8 1.29-.134.113-.24.228-.311.338l-.28.528-.016.03c-.335.761-.743 1.292-1.058 1.662-.315.372-.333.723-.29.95.045.252.18.458.325.613l-.01.015c-.093.163-.142.345-.142.535 0 .62.537 1.09 1.196 1.09.483 0 .874-.225 1.288-.503.17-.113.617-.409.763-.427.185 0 .354.17.354.357 0 .509-.652.78-1.12.816l-.95.104c-.683.065-1.008.427-1.008.754s.156.51.265.62l.07.073.243.217-1.008 1.633c-.72-.671-1.56-1.077-2.303-1.098-.482-.016-.899.129-1.206.419-.09.086-.167.182-.232.29h-.02c-.795 0-1.435.428-1.748.91-.34.525-.22 1.437.214 2.134l-2.543.662v12.236h46.638v-2.44h-8.49z" transform="translate(-40 -12) translate(39.093 11.415) translate(.907 .585)"></path>
                                    <path d="M9.137 17.486L6.096 16.693 6.096 17.693 9.137 18.49zM2.053 18.489L5.091 17.694 5.091 16.69 2.053 17.485zM2.053 20.507L5.091 19.712 5.091 18.707 2.053 19.502zM9.137 19.503L6.096 18.708 6.096 19.71 9.137 20.507zM9.137 21.52L6.096 20.723 6.096 21.726 9.137 22.525zM2.053 22.524L5.091 21.727 5.091 20.723 2.053 21.52z" transform="translate(-40 -12) translate(39.093 11.415) translate(.907 .585)"></path>
                                </g>
                            </g>
                        </g>
                    </g>
                    <desc>Created with Snap</desc><defs></defs></svg>